<?xml version="1.0" encoding="UTF-8" standalone="no"?><!DOCTYPE svg PUBLIC "-//W3C//DTD SVG 1.1//EN" "http://www.w3.org/Graphics/SVG/1.1/DTD/svg11.dtd"><svg width="100%" height="100%" viewBox="0 0 32 32" version="1.1" xmlns="http://www.w3.org/2000/svg" xmlns:xlink="http://www.w3.org/1999/xlink" xml:space="preserve" xmlns:serif="http://www.serif.com/" style="fill-rule:evenodd;clip-rule:evenodd;stroke-linecap:round;stroke-linejoin:round;stroke-miterlimit:1.5;"><path d="M16,9.25c3.158,-4.5 9.474,-4.5 12.632,-2.25c3.158,2.25 3.158,6.75 -0,11.25c-2.211,3.375 -7.895,6.75 -12.632,9c-4.737,-2.25 -10.421,-5.625 -12.632,-9c-3.157,-4.5 -3.157,-9 0,-11.25c3.158,-2.25 9.474,-2.25 12.632,2.25Z" style="fill:#f00;stroke:#000;stroke-width:0.25px;"/><g opacity="0.25"><path d="M11,0l-11,11" style="fill:none;stroke:#f00;stroke-width:1px;"/><path d="M9,-2l-11,11" style="fill:none;stroke:#f00;stroke-width:1px;"/><path d="M3,0l-3,3" style="fill:none;stroke:#f00;stroke-width:1px;"/><path d="M16,0l-16,16" style="fill:none;stroke:#f00;stroke-width:1px;"/><path d="M20.5,0l-20.5,20.5" style="fill:none;stroke:#f00;stroke-width:1px;"/><path d="M24.885,-0.036l-24.885,25.216" style="fill:none;stroke:#f00;stroke-width:1px;"/><path d="M29.5,0l-29.5,29.5" style="fill:none;stroke:#f00;stroke-width:1px;"/><path d="M32,2l-30,30" style="fill:none;stroke:#f00;stroke-width:1px;"/><path d="M32,6.5l-25.5,25.5" style="fill:none;stroke:#f00;stroke-width:1px;"/><path d="M32,11l-21,21" style="fill:none;stroke:#f00;stroke-width:1px;"/><path d="M32,15.5l-16.5,16.5" style="fill:none;stroke:#f00;stroke-width:1px;"/><path d="M32,20l-12,12" style="fill:none;stroke:#f00;stroke-width:1px;"/><path d="M32.341,24.159l-7.841,7.841" style="fill:none;stroke:#f00;stroke-width:1px;"/><path d="M32,29l-3,3" style="fill:none;stroke:#f00;stroke-width:1px;"/></g></svg>