<?xml version="1.0" encoding="UTF-8" standalone="no"?><!DOCTYPE svg PUBLIC "-//W3C//DTD SVG 1.1//EN" "http://www.w3.org/Graphics/SVG/1.1/DTD/svg11.dtd"><svg width="100%" height="100%" viewBox="0 0 100 100" version="1.1" xmlns="http://www.w3.org/2000/svg" xmlns:xlink="http://www.w3.org/1999/xlink" xml:space="preserve" xmlns:serif="http://www.serif.com/" style="fill-rule:evenodd;clip-rule:evenodd;stroke-linejoin:round;stroke-miterlimit:2;"><g><rect x="0" y="0" width="100" height="100" style="fill:#1d0505;"/><path d="M14,38c1.895,-3 5.684,-3 7.579,-1.5c1.895,1.5 1.895,4.5 -0,7.5c-1.326,2.25 -4.737,4.5 -7.579,6c-2.842,-1.5 -6.253,-3.75 -7.579,-6c-1.895,-3 -1.895,-6 0,-7.5c1.895,-1.5 5.684,-1.5 7.579,1.5Z" style="fill:#6e1313;"/><path d="M71,13.265c1.053,-1.5 3.158,-1.5 4.211,-0.75c1.052,0.75 1.052,2.25 -0,3.75c-0.737,1.125 -2.632,2.25 -4.211,3c-1.579,-0.75 -3.474,-1.875 -4.21,-3c-1.053,-1.5 -1.053,-3 -0,-3.75c1.052,-0.75 3.157,-0.75 4.21,0.75Z" style="fill:#6e1313;"/><path d="M46,46.421c1.263,-1.8 3.79,-1.8 5.053,-0.9c1.263,0.9 1.263,2.7 -0,4.5c-0.884,1.35 -3.158,2.7 -5.053,3.6c-1.895,-0.9 -4.168,-2.25 -5.053,-3.6c-1.263,-1.8 -1.263,-3.6 0,-4.5c1.264,-0.9 3.79,-0.9 5.053,0.9Z" style="fill:#6e1313;"/><path d="M56,66.178c0.842,-1.2 2.526,-1.2 3.368,-0.6c0.842,0.6 0.842,1.8 0,3c-0.589,0.9 -2.105,1.8 -3.368,2.4c-1.263,-0.6 -2.779,-1.5 -3.368,-2.4c-0.842,-1.2 -0.842,-2.4 -0,-3c0.842,-0.6 2.526,-0.6 3.368,0.6Z" style="fill:#6e1313;"/><path d="M86,40.379c1.052,-1.5 3.158,-1.5 4.21,-0.75c1.053,0.75 1.053,2.25 0,3.75c-0.737,1.125 -2.631,2.25 -4.21,3c-1.579,-0.75 -3.474,-1.875 -4.211,-3c-1.052,-1.5 -1.052,-3 0,-3.75c1.053,-0.75 3.158,-0.75 4.211,0.75Z" style="fill:#6e1313;"/><path d="M68,90.379c1.053,-1.5 3.158,-1.5 4.21,-0.75c1.053,0.75 1.053,2.25 0,3.75c-0.736,1.125 -2.631,2.25 -4.21,3c-1.579,-0.75 -3.474,-1.875 -4.21,-3c-1.053,-1.5 -1.053,-3 -0,-3.75c1.052,-0.75 3.157,-0.75 4.21,0.75Z" style="fill:#6e1313;"/><path d="M18,13.265c1.053,-1.5 3.158,-1.5 4.211,-0.75c1.052,0.75 1.052,2.25 -0,3.75c-0.737,1.125 -2.632,2.25 -4.211,3c-1.579,-0.75 -3.474,-1.875 -4.21,-3c-1.053,-1.5 -1.053,-3 -0,-3.75c1.052,-0.75 3.157,-0.75 4.21,0.75Z" style="fill:#6e1313;"/><path d="M66,27.865c1.474,-2.1 4.421,-2.1 5.895,-1.05c1.473,1.05 1.473,3.15 -0,5.25c-1.032,1.575 -3.685,3.15 -5.895,4.2c-2.211,-1.05 -4.863,-2.625 -5.895,-4.2c-1.473,-2.1 -1.473,-4.2 0,-5.25c1.474,-1.05 4.421,-1.05 5.895,1.05Z" style="fill:#6e1313;"/><path d="M13,75.265c1.053,-1.5 3.158,-1.5 4.211,-0.75c1.052,0.75 1.052,2.25 -0,3.75c-0.737,1.125 -2.632,2.25 -4.211,3c-1.579,-0.75 -3.474,-1.875 -4.21,-3c-1.053,-1.5 -1.053,-3 -0,-3.75c1.052,-0.75 3.158,-0.75 4.21,0.75Z" style="fill:#6e1313;"/><path d="M49,19.286c0.632,-0.9 1.895,-0.9 2.526,-0.45c0.632,0.45 0.632,1.35 0,2.25c-0.442,0.675 -1.579,1.35 -2.526,1.8c-0.947,-0.45 -2.084,-1.125 -2.526,-1.8c-0.632,-0.9 -0.632,-1.8 -0,-2.25c0.631,-0.45 1.895,-0.45 2.526,0.45Z" style="fill:#6e1313;"/><path d="M28,56.286c0.632,-0.9 1.895,-0.9 2.526,-0.45c0.632,0.45 0.632,1.35 0,2.25c-0.442,0.675 -1.579,1.35 -2.526,1.8c-0.947,-0.45 -2.084,-1.125 -2.526,-1.8c-0.632,-0.9 -0.632,-1.8 -0,-2.25c0.631,-0.45 1.895,-0.45 2.526,0.45Z" style="fill:#6e1313;"/><path d="M81,69.071c2.526,-3.6 7.579,-3.6 10.105,-1.8c2.527,1.8 2.527,5.399 0,8.999c-1.768,2.7 -6.316,5.4 -10.105,7.2c-3.79,-1.8 -8.337,-4.5 -10.105,-7.2c-2.527,-3.6 -2.527,-7.199 -0,-8.999c2.526,-1.8 7.579,-1.8 10.105,1.8Z" style="fill:#6e1313;"/><path d="M40,81.563c2.526,-3.6 7.579,-3.6 10.105,-1.8c2.527,1.8 2.527,5.4 0,9c-1.768,2.7 -6.315,5.4 -10.105,7.2c-3.789,-1.8 -8.337,-4.5 -10.105,-7.2c-2.526,-3.6 -2.526,-7.2 -0,-9c2.526,-1.8 7.579,-1.8 10.105,1.8Z" style="fill:#6e1313;"/></g></svg>